<svg id="Layer_1" data-name="Layer 1" xmlns="http://www.w3.org/2000/svg" viewBox="0 0 365.62 173.27"><defs><style>.cls-1{fill:#fff;}</style></defs><title>TGS_logo_white_vector_1</title><path class="cls-1" d="M471.91,379.08a27.66,27.66,0,0,1-7.48,4.27c-.32.12-.65.2-1,.31a78.62,78.62,0,0,1-44.69,89.41c1.49-.45,3-.95,4.43-1.51A78.61,78.61,0,0,0,471.91,379.08Zm-30.46-45A78.5,78.5,0,0,0,368,324.32c-1.47.55-2.92,1.15-4.34,1.77a78.58,78.58,0,0,1,71.34,13A27.08,27.08,0,0,1,441.45,334.07Z" transform="translate(-140.26 -301.54)"/><polygon class="cls-1" points="311.95 49.95 298.36 0 316.39 48.41 334.88 24.03 320.34 50.92 343.42 49.48 320.84 55.57 365.62 103.47 317.53 58.86 310.48 92.33 312.88 58.33 271.46 78.42 310.4 54.37 289.05 43.19 311.95 49.95"/><path class="cls-1" d="M156.69,462.06a70.83,70.83,0,0,0,8.82.84c4.05,0,4.88-.36,4.88-6.08V396.91h-7.5c-6.2,0-12.27,0-12.27,10.24a50.21,50.21,0,0,0,.59,7.15h-11V387.5c9.64.36,22.63.83,39.3.83s29.66-.47,39.31-.83v26.8h-11a50,50,0,0,0,.6-7.15c0-10.24-6.08-10.24-12.27-10.24h-7.51v59.91c0,5.72.84,6.08,4.89,6.08a70.85,70.85,0,0,0,8.81-.84v10.25c-7.5-.36-14.89-.84-22.87-.84s-15.37.48-22.87.84Z" transform="translate(-140.26 -301.54)"/><path class="cls-1" d="M320.71,439.67c-2.86-.36-5.24-.83-7-.83s-2.62.47-2.62,3.81v24.41c-10.84,4.06-20.61,7.75-34.78,7.75-30.61,0-44.79-20.73-44.79-44.31,0-26.09,17.75-45.5,49.32-45.5A111.3,111.3,0,0,1,309,389.76V414.3H297.72a51.87,51.87,0,0,0,.59-7.62c0-6.55-2.73-13.11-16.31-13.11-28.59,0-28.83,28.23-28.83,38.83,0,3.58.72,33.83,25.49,33.83a32.33,32.33,0,0,0,14.41-3.69V442.65c0-2.86-1.54-3.81-4.28-3.81s-6.79.59-9.65.83V429.9c7.15.36,14.41.84,21.56.84,6.67,0,13.34-.48,20-.84Z" transform="translate(-140.26 -301.54)"/><path class="cls-1" d="M333.69,445.27h11.44a89,89,0,0,0-.72,9.65c0,6.55,6.55,11.31,19.18,11.31s18.58-7.15,18.58-13.94c0-8.21-7.27-10.71-11.91-12.38L355,434.55c-12.39-4.41-21.2-10.13-21.2-23.59,0-18.58,19.06-26,34.78-26a78.84,78.84,0,0,1,26.2,4.88v21.56H383.36c.24-2.26.72-5.72.72-7.38,0-7.51-7.27-10.13-16-10.13-9.66,0-17.4,4.29-17.4,11.67,0,7.15,4.41,9.41,12.39,12.15l13,4.41c10,3.34,24,8,24,24.54,0,13.7-9.89,28.11-37.76,28.11-9.77,0-21.92-3-28.59-5.12Z" transform="translate(-140.26 -301.54)"/><path class="cls-1" d="M462.82,469.38a5.34,5.34,0,1,1-5.32-5.19A5.22,5.22,0,0,1,462.82,469.38Zm-9.34,0a4,4,0,0,0,4,4.15,4,4,0,0,0,4-4.11,4,4,0,1,0-8,0Zm3.2,2.73h-1.2v-5.2a10.86,10.86,0,0,1,2-.16,3.27,3.27,0,0,1,1.81.38,1.48,1.48,0,0,1,.5,1.14,1.33,1.33,0,0,1-1.07,1.21v.06a1.55,1.55,0,0,1,1,1.27,4,4,0,0,0,.38,1.3h-1.3a4.2,4.2,0,0,1-.41-1.27c-.1-.57-.41-.82-1.08-.82h-.57Zm0-2.95h.57c.67,0,1.2-.22,1.2-.76s-.34-.79-1.1-.79a3.09,3.09,0,0,0-.67.06Z" transform="translate(-140.26 -301.54)"/></svg>