<svg id="Flip_Icon" xmlns="http://www.w3.org/2000/svg" width="30" height="30" viewBox="0 0 30 30">
  <path id="Path_898" data-name="Path 898" d="M0,0H30V30H0Z" fill="none"/>
  <path id="Path_899" data-name="Path 899" d="M18.155,26.071h2.526V23.564H18.155Zm5.052-15.042h2.526V8.521H23.207ZM3,6.014V23.564a2.524,2.524,0,0,0,2.526,2.507h5.052V23.564H5.526V6.014h5.052V3.507H5.526A2.524,2.524,0,0,0,3,6.014ZM23.207,3.507V6.014h2.526A2.524,2.524,0,0,0,23.207,3.507ZM13.1,28.578H15.63V1H13.1Zm10.1-7.521h2.526V18.549H23.207ZM18.155,6.014h2.526V3.507H18.155Zm5.052,10.028h2.526V13.535H23.207Zm0,10.028a2.524,2.524,0,0,0,2.526-2.507H23.207Z" transform="translate(0.633 0.211)" fill="#fff"/>
</svg>
