<svg xmlns="http://www.w3.org/2000/svg" width="30" height="29.644" viewBox="0 0 30 29.644">
  <g id="Top_Tools_Icon" transform="translate(-476 -513.156)">
    <path id="Path_916" data-name="Path 916" d="M3,22.278v4.053A.66.66,0,0,0,3.667,27H7.719a.625.625,0,0,0,.467-.2L22.744,12.253l-5-5L3.2,21.8A.655.655,0,0,0,3,22.278ZM26.61,8.387a1.328,1.328,0,0,0,0-1.88l-3.12-3.12a1.328,1.328,0,0,0-1.88,0l-2.44,2.44,5,5,2.44-2.44Z" transform="translate(476.5 511.658)" fill="#fff" stroke="#4e4e4e" stroke-width="3"/>
    <line id="Line_162" data-name="Line 162" x2="30" transform="translate(476 541.3)" fill="none" stroke="#4e4e4e" stroke-width="3"/>
  </g>
</svg>
